<?xml version="1.0" encoding="utf-8"?>
<!-- Generator: Adobe Illustrator 27.0.0, SVG Export Plug-In . SVG Version: 6.00 Build 0)  -->
<svg version="1.1" id="圖層_1" xmlns="http://www.w3.org/2000/svg" xmlns:xlink="http://www.w3.org/1999/xlink" x="0px" y="0px"
	 viewBox="0 0 26 16" style="enable-background:new 0 0 26 16;" xml:space="preserve">
<style type="text/css">
	.st0{fill:#956D65;}
</style>
<g>
	<path class="st0" d="M13,2H1C0.4,2,0,1.6,0,1s0.4-1,1-1h12c0.6,0,1,0.4,1,1S13.6,2,13,2z"/>
	<path class="st0" d="M25,9H1C0.4,9,0,8.6,0,8s0.4-1,1-1h24c0.6,0,1,0.4,1,1S25.6,9,25,9z"/>
	<path class="st0" d="M25,16H13c-0.6,0-1-0.4-1-1s0.4-1,1-1h12c0.6,0,1,0.4,1,1S25.6,16,25,16z"/>
</g>
</svg>
