<?xml version="1.0" encoding="UTF-8"?>
<svg id="_圖層_1" data-name="圖層 1" xmlns="http://www.w3.org/2000/svg" viewBox="0 0 19 19">
  <defs>
    <style>
      .cls-1 {
        fill: #fff;
      }
    </style>
  </defs>
  <path class="cls-1" d="M17.97,18.97c-.26,0-.51-.1-.71-.29L.29,1.71C-.1,1.32-.1,.68,.29,.29S1.32-.1,1.71,.29L18.68,17.26c.39,.39,.39,1.02,0,1.41-.2,.2-.45,.29-.71,.29Z"/>
  <path class="cls-1" d="M1,19c-.26,0-.51-.1-.71-.29-.39-.39-.39-1.02,0-1.41L17.29,.29c.39-.39,1.02-.39,1.41,0s.39,1.02,0,1.41L1.71,18.71c-.2,.2-.45,.29-.71,.29Z"/>
</svg>