<?xml version="1.0" encoding="UTF-8"?>
<svg id="_圖層_1" data-name="圖層 1" xmlns="http://www.w3.org/2000/svg" xmlns:xlink="http://www.w3.org/1999/xlink" viewBox="0 0 22 15">
  <defs>
    <style>
      .cls-1 {
        fill: none;
      }

      .cls-2 {
        clip-path: url(#clippath);
      }

      .cls-3 {
        fill: #fff;
      }
    </style>
    <clipPath id="clippath">
      <rect class="cls-1" x=".24" width="20.99" height="15"/>
    </clipPath>
  </defs>
  <g class="cls-2">
    <g>
      <path class="cls-3" d="M.24,4.43c.21,.14,.38,.26,.56,.37,2.67,1.8,5.35,3.59,8.02,5.39,1.25,.84,2.58,.84,3.83,0,2.77-1.86,5.55-3.73,8.32-5.59,.07-.05,.14-.09,.24-.15,0,.09,.01,.16,.01,.23V13.13c0,1.1-.7,1.83-1.78,1.87H2.19c-.46,0-.9-.07-1.28-.37-.47-.38-.68-.87-.68-1.48,0-2.83,0-5.66,0-8.5v-.22H.24Z"/>
      <path class="cls-3" d="M10.75,0h8.65c.93,0,1.65,.57,1.79,1.46,.06,.35,.03,.72,.02,1.08,0,.07-.1,.15-.17,.19-2.87,1.93-5.75,3.86-8.63,5.8-.22,.15-.44,.3-.66,.44-.68,.45-1.37,.45-2.06,0C6.94,7.12,4.19,5.28,1.44,3.43c-.36-.24-.72-.48-1.07-.73-.07-.05-.13-.16-.13-.24,0-.36-.02-.73,.04-1.08C.43,.61,1.08,.06,1.86,0c.11,0,.22,0,.32,0H10.75Z"/>
    </g>
  </g>
</svg>