<svg width="11" height="19" viewBox="0 0 11 19" fill="none" xmlns="http://www.w3.org/2000/svg">
<g clip-path="url(#clip0_152_96)">
<path d="M0.49539 7.6913C0.29685 7.90863 0.149144 8.1795 0.0695366 8.47452C0.0637818 8.49552 0.0589862 8.51547 0.0541905 8.53647C0.0445992 8.57741 0.035967 8.61836 0.028294 8.65931C0.0129479 8.74645 0.00431573 8.83884 0.00143834 8.93543C-0.000479916 8.97743 -0.000479914 9.01942 0.00143835 9.06247C0.0158253 9.53388 0.190387 9.97589 0.494431 10.3087L6.11398 16.459C6.7729 17.1803 7.84617 17.1803 8.50509 16.459C8.82448 16.1094 9 15.6443 9 15.1498C9 14.6553 8.82448 14.1912 8.50509 13.8406L4.08254 8.99948L8.50509 4.15837C8.82448 3.80875 9 3.34365 9 2.85019C9 2.35674 8.82448 1.89163 8.50509 1.54096C7.84617 0.819679 6.7729 0.819679 6.11398 1.54096L0.49539 7.6913Z" fill="white"/>
</g>
<defs>
<clipPath id="clip0_152_96">
<rect width="18" height="11" fill="white" transform="translate(0 18.5) rotate(-90)"/>
</clipPath>
</defs>
</svg>
