<?xml version="1.0" encoding="utf-8"?>
<!-- Generator: Adobe Illustrator 27.0.0, SVG Export Plug-In . SVG Version: 6.00 Build 0)  -->
<svg version="1.1" id="圖層_1" xmlns="http://www.w3.org/2000/svg" xmlns:xlink="http://www.w3.org/1999/xlink" x="0px" y="0px"
	 viewBox="0 0 208 97" style="enable-background:new 0 0 208 97;" xml:space="preserve">
<style type="text/css">
	.st0{fill:#956D65;}
	.st1{clip-path:url(#SVGID_00000080901907242750197030000017759628525974053773_);}
</style>
<path class="st0" d="M96.3,37.3c0,0.8-0.2,1.5-0.6,2.2s-1,1.3-1.8,1.7c-0.8,0.4-1.8,0.6-3.1,0.6h-2.8V48h-2.5V32.7h5.3
	c1.2,0,2.2,0.2,3,0.6c0.8,0.4,1.4,0.9,1.8,1.6C96.1,35.6,96.3,36.4,96.3,37.3z M90.9,39.8c1,0,1.7-0.2,2.1-0.6
	c0.5-0.4,0.7-1.1,0.7-1.8c0-1.7-0.9-2.5-2.8-2.5h-2.8v5H90.9z M103.7,34.7v4.5h5.3v2h-5.3V46h5.9v2h-8.4V32.7h8.4v2H103.7z
	 M126.2,37.1c-0.4-0.8-0.9-1.3-1.7-1.7c-0.7-0.4-1.5-0.6-2.4-0.6c-1,0-1.9,0.2-2.7,0.7c-0.8,0.5-1.4,1.1-1.9,1.9
	c-0.4,0.8-0.7,1.8-0.7,2.9c0,1.1,0.2,2.1,0.7,2.9c0.5,0.8,1.1,1.5,1.9,1.9c0.8,0.5,1.7,0.7,2.7,0.7c1.4,0,2.5-0.4,3.3-1.1
	c0.9-0.8,1.4-1.8,1.6-3.1h-5.7v-2h8.4v2c-0.2,1.2-0.6,2.3-1.3,3.3c-0.7,1-1.6,1.8-2.7,2.4c-1.1,0.6-2.3,0.9-3.6,0.9
	c-1.4,0-2.8-0.3-3.9-1c-1.2-0.7-2.1-1.6-2.8-2.8c-0.7-1.2-1-2.5-1-4c0-1.5,0.3-2.8,1-4c0.7-1.2,1.7-2.1,2.8-2.8c1.2-0.7,2.5-1,3.9-1
	c1.6,0,3.1,0.4,4.3,1.2c1.3,0.8,2.2,1.9,2.8,3.4H126.2z M145.6,37.1c-0.4-0.8-0.9-1.3-1.7-1.7c-0.7-0.4-1.5-0.6-2.4-0.6
	c-1,0-1.9,0.2-2.7,0.7c-0.8,0.5-1.4,1.1-1.9,1.9c-0.4,0.8-0.7,1.8-0.7,2.9c0,1.1,0.2,2.1,0.7,2.9c0.5,0.8,1.1,1.5,1.9,1.9
	c0.8,0.5,1.7,0.7,2.7,0.7c1.4,0,2.5-0.4,3.3-1.1c0.8-0.8,1.4-1.8,1.6-3.1h-5.7v-2h8.4v2c-0.2,1.2-0.6,2.3-1.3,3.3
	c-0.7,1-1.6,1.8-2.7,2.4c-1.1,0.6-2.3,0.9-3.6,0.9c-1.4,0-2.8-0.3-3.9-1c-1.2-0.7-2.1-1.6-2.8-2.8c-0.7-1.2-1-2.5-1-4
	c0-1.5,0.3-2.8,1-4c0.7-1.2,1.7-2.1,2.8-2.8c1.2-0.7,2.5-1,3.9-1c1.6,0,3.1,0.4,4.3,1.2c1.3,0.8,2.2,1.9,2.8,3.4H145.6z M165.3,32.7
	l-5.1,9.7V48h-2.5v-5.5l-5.1-9.7h2.8l3.5,7.5l3.5-7.5H165.3z M172.2,46h5.2v2h-7.7V32.7h2.5V46z M184.4,34.7v4.5h5.3v2h-5.3V46h5.9
	v2h-8.4V32.7h8.4v2H184.4z M198.4,34.7v4.5h5.3v2h-5.3V46h5.9v2h-8.4V32.7h8.4v2H198.4z"/>
<path class="st0" d="M96.3,67.3c0,0.8-0.2,1.5-0.6,2.2s-1,1.3-1.8,1.7c-0.8,0.4-1.8,0.6-3.1,0.6h-2.8V78h-2.5V62.7h5.3
	c1.2,0,2.2,0.2,3,0.6c0.8,0.4,1.4,0.9,1.8,1.6C96.1,65.6,96.3,66.4,96.3,67.3z M90.9,69.8c1,0,1.7-0.2,2.1-0.6
	c0.5-0.4,0.7-1.1,0.7-1.8c0-1.7-0.9-2.5-2.8-2.5h-2.8v5H90.9z M106.2,78.2c-1.1,0-2.2-0.3-3.1-0.8c-0.9-0.5-1.6-1.3-2.2-2.2
	c-0.5-1-0.8-2.1-0.8-3.3c0-1.2,0.3-2.3,0.8-3.3s1.3-1.7,2.2-2.2c0.9-0.5,2-0.8,3.1-0.8c1.2,0,2.2,0.3,3.1,0.8
	c0.9,0.5,1.7,1.2,2.2,2.2s0.8,2,0.8,3.3s-0.3,2.3-0.8,3.3s-1.3,1.7-2.3,2.2C108.4,77.9,107.4,78.2,106.2,78.2z M106.2,76
	c0.6,0,1.2-0.2,1.8-0.5c0.6-0.3,1-0.8,1.4-1.4c0.4-0.6,0.5-1.4,0.5-2.2c0-0.9-0.2-1.6-0.5-2.2c-0.3-0.6-0.8-1.1-1.3-1.4
	c-0.6-0.3-1.2-0.5-1.8-0.5c-0.6,0-1.2,0.2-1.8,0.5c-0.5,0.3-1,0.8-1.3,1.4c-0.3,0.6-0.5,1.3-0.5,2.2c0,1.3,0.3,2.3,1,3
	C104.3,75.7,105.2,76,106.2,76z M119.7,67.6c0.4-0.6,0.9-1.1,1.5-1.4c0.6-0.4,1.3-0.5,2.2-0.5v2.6h-0.6c-1,0-1.7,0.2-2.2,0.7
	c-0.5,0.5-0.7,1.4-0.7,2.6V78h-2.5V65.9h2.5V67.6z M130.7,67.9v6.7c0,0.5,0.1,0.8,0.3,1c0.2,0.2,0.6,0.3,1.1,0.3h1.5V78h-2
	c-1.1,0-2-0.3-2.6-0.8c-0.6-0.5-0.9-1.4-0.9-2.6v-6.7h-1.4v-2h1.4v-3h2.5v3h2.9v2H130.7z M143.3,67.9H141V78h-2.5V67.9h-1.4v-2h1.4
	V65c0-1.4,0.4-2.4,1.1-3c0.7-0.6,1.9-1,3.5-1v2.1c-0.8,0-1.3,0.1-1.6,0.4c-0.3,0.3-0.5,0.8-0.5,1.5v0.9h2.2V67.9z M153,78.2
	c-1.1,0-2.2-0.3-3.1-0.8c-0.9-0.5-1.6-1.3-2.2-2.2c-0.5-1-0.8-2.1-0.8-3.3c0-1.2,0.3-2.3,0.8-3.3s1.3-1.7,2.2-2.2
	c0.9-0.5,2-0.8,3.1-0.8s2.2,0.3,3.1,0.8c0.9,0.5,1.7,1.2,2.2,2.2s0.8,2,0.8,3.3s-0.3,2.3-0.8,3.3c-0.6,1-1.3,1.7-2.3,2.2
	C155.2,77.9,154.1,78.2,153,78.2z M153,76c0.6,0,1.2-0.2,1.8-0.5c0.6-0.3,1-0.8,1.4-1.4c0.4-0.6,0.5-1.4,0.5-2.2
	c0-0.9-0.2-1.6-0.5-2.2c-0.3-0.6-0.8-1.1-1.3-1.4c-0.6-0.3-1.2-0.5-1.8-0.5c-0.6,0-1.2,0.2-1.8,0.5c-0.5,0.3-1,0.8-1.3,1.4
	c-0.3,0.6-0.5,1.3-0.5,2.2c0,1.3,0.3,2.3,1,3C151.1,75.7,151.9,76,153,76z M166.4,61.7V78h-2.5V61.7H166.4z M173.2,64.3
	c-0.5,0-0.8-0.2-1.1-0.5c-0.3-0.3-0.5-0.7-0.5-1.1s0.2-0.8,0.5-1.1c0.3-0.3,0.7-0.5,1.1-0.5c0.4,0,0.8,0.2,1.1,0.5
	c0.3,0.3,0.5,0.7,0.5,1.1s-0.2,0.8-0.5,1.1C174,64.1,173.6,64.3,173.2,64.3z M174.4,65.9V78h-2.5V65.9H174.4z M185.2,78.2
	c-1.1,0-2.2-0.3-3.1-0.8c-0.9-0.5-1.6-1.3-2.2-2.2c-0.5-1-0.8-2.1-0.8-3.3c0-1.2,0.3-2.3,0.8-3.3c0.5-1,1.3-1.7,2.2-2.2
	c0.9-0.5,2-0.8,3.1-0.8c1.2,0,2.2,0.3,3.1,0.8c0.9,0.5,1.7,1.2,2.2,2.2c0.5,1,0.8,2,0.8,3.3s-0.3,2.3-0.8,3.3
	c-0.6,1-1.3,1.7-2.3,2.2C187.4,77.9,186.3,78.2,185.2,78.2z M185.2,76c0.6,0,1.2-0.2,1.8-0.5c0.6-0.3,1-0.8,1.4-1.4
	c0.4-0.6,0.5-1.4,0.5-2.2c0-0.9-0.2-1.6-0.5-2.2c-0.3-0.6-0.8-1.1-1.3-1.4c-0.6-0.3-1.2-0.5-1.8-0.5c-0.6,0-1.2,0.2-1.8,0.5
	c-0.5,0.3-1,0.8-1.3,1.4c-0.3,0.6-0.5,1.3-0.5,2.2c0,1.3,0.3,2.3,1,3C183.3,75.7,184.2,76,185.2,76z M200.6,78.2
	c-1,0-1.8-0.2-2.6-0.5c-0.7-0.4-1.3-0.8-1.8-1.4c-0.4-0.6-0.7-1.3-0.7-2h2.6c0,0.5,0.3,0.9,0.7,1.3c0.5,0.3,1,0.5,1.7,0.5
	c0.7,0,1.2-0.1,1.6-0.4c0.4-0.3,0.6-0.6,0.6-1.1c0-0.5-0.2-0.8-0.7-1c-0.4-0.2-1.1-0.5-2-0.7c-0.9-0.2-1.7-0.5-2.2-0.7
	c-0.6-0.2-1.1-0.6-1.5-1.1c-0.4-0.5-0.6-1.1-0.6-1.9c0-0.6,0.2-1.2,0.6-1.8c0.4-0.5,0.9-1,1.6-1.3c0.7-0.3,1.5-0.5,2.5-0.5
	c1.4,0,2.5,0.4,3.3,1.1c0.9,0.7,1.3,1.6,1.4,2.8h-2.5c0-0.5-0.3-1-0.7-1.3s-0.9-0.5-1.6-0.5c-0.7,0-1.2,0.1-1.5,0.4
	c-0.4,0.2-0.5,0.6-0.5,1c0,0.3,0.1,0.6,0.4,0.8s0.5,0.4,0.9,0.5c0.3,0.1,0.8,0.3,1.5,0.5c0.9,0.2,1.6,0.5,2.2,0.7
	c0.6,0.2,1.1,0.6,1.5,1.1c0.4,0.5,0.6,1.1,0.6,1.9c0,0.7-0.2,1.3-0.6,1.8s-0.9,1-1.6,1.3C202.3,78,201.5,78.2,200.6,78.2z"/>
<g>
	<defs>
		<rect id="SVGID_1_" width="60.6" height="97"/>
	</defs>
	<clipPath id="SVGID_00000143617408268806898040000000097294327586204824_">
		<use xlink:href="#SVGID_1_"  style="overflow:visible;"/>
	</clipPath>
	<g style="clip-path:url(#SVGID_00000143617408268806898040000000097294327586204824_);">
		<path class="st0" d="M12.1,84.9h48.5V97H0V30.3C0,13.6,13.6,0,30.3,0c8.4,0,16,3.4,21.4,8.9c2.7,2.7,5,6,6.5,9.6
			c1.5,3.6,2.4,7.6,2.4,11.8c0,8.4-3.4,15.9-8.9,21.4c-4.1,4.1-9.4,7.1-15.4,8.3v12.7H24.2V47.5c1.9,0.7,3.9,1,6.1,1h0
			c2.1,0,4.2-0.4,6.1-1c2.6-0.9,4.9-2.4,6.8-4.3c3.3-3.3,5.3-7.8,5.3-12.9c0-10-8.1-18.2-18.2-18.2h0c-7.9,0-15.2,5.1-17.4,12.7
			c-0.5,1.9-0.8,3.7-0.8,5.5h0V84.9L12.1,84.9z"/>
		<path class="st0" d="M30.3,36.4c-3.3,0-6.1-2.7-6.1-6.1c0-1.7,0.7-3.2,1.8-4.3c1.1-1.1,2.6-1.8,4.3-1.8h0c3.3,0,6.1,2.7,6.1,6.1
			c0,1.7-0.7,3.2-1.8,4.3C33.5,35.7,32,36.4,30.3,36.4L30.3,36.4L30.3,36.4z"/>
	</g>
</g>
</svg>
